<svg width="294" height="120" viewBox="0 0 294 120" fill="none" xmlns="http://www.w3.org/2000/svg">
<path d="M67.1613 105.42C67.4337 104.875 68.2849 103.888 68.2849 102.594V80.4625C68.2849 79.1686 67.4337 78.1812 67.1613 77.6365C67.7061 77.9089 68.6935 78.7601 69.9874 78.7601C71.2812 78.7601 72.2686 77.9089 72.8134 77.6365C72.541 78.1812 71.6898 79.1686 71.6898 80.4625V88.9746H76.797C77.8185 88.9746 78.4994 88.2936 78.4994 87.2721C78.4994 85.9783 77.6482 84.9909 77.3758 84.4461C77.9206 84.7185 78.908 85.5697 80.2018 85.5697C81.2233 85.5697 81.9042 84.8888 81.9042 83.8673V80.4625C81.9042 79.1686 81.053 78.1812 80.7807 77.6365C81.3254 77.9089 82.3128 78.7601 83.6067 78.7601C84.9005 78.7601 85.8879 77.9089 86.4327 77.6365C86.1603 78.1812 85.3091 79.1686 85.3091 80.4625V83.8673C85.3091 85.1611 86.1603 86.1485 86.4327 86.6933C85.8879 86.4209 84.9005 85.5697 83.6067 85.5697C82.5852 85.5697 81.9042 86.2507 81.9042 87.2721C81.9042 88.566 82.7555 89.5534 83.0278 90.0982C82.4831 89.8258 81.4957 88.9746 80.2018 88.9746C79.1804 88.9746 78.4994 89.6555 78.4994 90.677C78.4994 91.6984 79.1804 92.3794 80.2018 92.3794C81.4957 92.3794 82.4831 91.5282 83.0278 91.2558C82.7555 91.8006 81.9042 92.788 81.9042 94.0818C81.9042 95.1032 82.5852 95.7842 83.6067 95.7842C84.9005 95.7842 85.8879 94.933 86.4327 94.6606C86.1603 95.2054 85.3091 96.1928 85.3091 97.4866V102.594C85.3091 103.888 86.1603 104.875 86.4327 105.42C85.8879 105.147 84.9005 104.296 83.6067 104.296C82.3128 104.296 81.3254 105.147 80.7807 105.42C81.053 104.875 81.9042 103.888 81.9042 102.594V97.4866C81.9042 96.4652 81.2233 95.7842 80.2018 95.7842C78.908 95.7842 77.9206 96.6354 77.3758 96.9078C77.6482 96.363 78.4994 95.3756 78.4994 94.0818C78.4994 93.0603 77.8185 92.3794 76.797 92.3794H71.6898V102.594C71.6898 103.888 72.541 104.875 72.8134 105.42C72.2686 105.147 71.2812 104.296 69.9874 104.296C68.6935 104.296 67.7061 105.147 67.1613 105.42Z" fill="black"/>
<path d="M92.0791 105.42C92.3515 104.875 93.2027 103.888 93.2027 102.594C93.2027 101.572 92.5217 100.891 91.5003 100.891C90.2064 100.891 89.219 101.743 88.6743 102.015C88.9466 101.47 89.7979 100.483 89.7979 99.189V80.4625C89.7979 79.1686 88.9466 78.1812 88.6743 77.6365C89.219 77.9089 90.2064 78.7601 91.5003 78.7601C92.7941 78.7601 93.7815 77.9089 94.3263 77.6365C94.0539 78.1812 93.2027 79.1686 93.2027 80.4625V99.189C93.2027 100.21 93.8836 100.891 94.9051 100.891H101.715C102.736 100.891 103.417 100.21 103.417 99.189V80.4625C103.417 79.1686 102.566 78.1812 102.294 77.6365C102.838 77.9089 103.826 78.7601 105.12 78.7601C106.413 78.7601 107.401 77.9089 107.946 77.6365C107.673 78.1812 106.822 79.1686 106.822 80.4625V99.189C106.822 100.483 107.673 101.47 107.946 102.015C107.401 101.743 106.413 100.891 105.12 100.891C104.098 100.891 103.417 101.572 103.417 102.594C103.417 103.888 104.268 104.875 104.541 105.42C103.996 105.147 103.009 104.296 101.715 104.296H94.9051C93.6113 104.296 92.6239 105.147 92.0791 105.42Z" fill="black"/>
<path d="M110.187 105.42C110.46 104.875 111.311 103.888 111.311 102.594V80.4625C111.311 79.1686 110.46 78.1812 110.187 77.6365C110.732 77.9089 111.719 78.7601 113.013 78.7601C114.307 78.7601 115.294 77.9089 115.839 77.6365C115.567 78.1812 114.716 79.1686 114.716 80.4625V100.891H123.228C124.522 100.891 125.509 100.04 126.054 99.7679C125.781 100.313 124.93 101.3 124.93 102.594C124.93 103.888 125.781 104.875 126.054 105.42C125.509 105.147 124.522 104.296 123.228 104.296H113.013C111.719 104.296 110.732 105.147 110.187 105.42Z" fill="black"/>
<path d="M130.011 105.42C130.283 104.875 131.135 103.888 131.135 102.594V82.1649H126.027C124.734 82.1649 123.746 83.0161 123.201 83.2885C123.474 82.7437 124.325 81.7563 124.325 80.4625C124.325 79.1686 123.474 78.1812 123.201 77.6365C123.746 77.9089 124.734 78.7601 126.027 78.7601H139.647C140.94 78.7601 141.928 77.9089 142.473 77.6365C142.2 78.1812 141.349 79.1686 141.349 80.4625C141.349 81.7563 142.2 82.7437 142.473 83.2885C141.928 83.0161 140.94 82.1649 139.647 82.1649H134.539V102.594C134.539 103.888 135.391 104.875 135.663 105.42C135.118 105.147 134.131 104.296 132.837 104.296C131.543 104.296 130.556 105.147 130.011 105.42Z" fill="black"/>
<path d="M147.275 105.42C147.547 104.875 148.398 103.888 148.398 102.594C148.398 101.572 147.717 100.891 146.696 100.891C145.402 100.891 144.414 101.743 143.87 102.015C144.142 101.47 144.993 100.483 144.993 99.189V80.4625C144.993 79.1686 144.142 78.1812 143.87 77.6365C144.414 77.9089 145.402 78.7601 146.696 78.7601C147.99 78.7601 148.977 77.9089 149.522 77.6365C149.249 78.1812 148.398 79.1686 148.398 80.4625V99.189C148.398 100.21 149.079 100.891 150.101 100.891H156.91C157.932 100.891 158.613 100.21 158.613 99.189V80.4625C158.613 79.1686 157.761 78.1812 157.489 77.6365C158.034 77.9089 159.021 78.7601 160.315 78.7601C161.609 78.7601 162.596 77.9089 163.141 77.6365C162.869 78.1812 162.017 79.1686 162.017 80.4625V99.189C162.017 100.483 162.869 101.47 163.141 102.015C162.596 101.743 161.609 100.891 160.315 100.891C159.294 100.891 158.613 101.572 158.613 102.594C158.613 103.888 159.464 104.875 159.736 105.42C159.191 105.147 158.204 104.296 156.91 104.296H150.101C148.807 104.296 147.819 105.147 147.275 105.42Z" fill="black"/>
<path d="M165.383 105.42C165.655 104.875 166.506 103.888 166.506 102.594V80.4625C166.506 79.1686 165.655 78.1812 165.383 77.6365C165.927 77.9089 166.915 78.7601 168.209 78.7601H178.423C179.717 78.7601 180.704 77.9089 181.249 77.6365C180.977 78.1812 180.126 79.1686 180.126 80.4625C180.126 81.4839 180.806 82.1649 181.828 82.1649C183.122 82.1649 184.109 81.3137 184.654 81.0413C184.382 81.5861 183.53 82.5735 183.53 83.8673V87.2721C183.53 88.566 184.382 89.5534 184.654 90.0982C184.109 89.8258 183.122 88.9746 181.828 88.9746C180.806 88.9746 180.126 89.6555 180.126 90.677C180.126 91.6984 180.806 92.3794 181.828 92.3794C183.122 92.3794 184.109 91.5282 184.654 91.2558C184.382 91.8006 183.53 92.788 183.53 94.0818V102.594C183.53 103.888 184.382 104.875 184.654 105.42C184.109 105.147 183.122 104.296 181.828 104.296C180.534 104.296 179.547 105.147 179.002 105.42C179.274 104.875 180.126 103.888 180.126 102.594V94.0818C180.126 93.0603 179.445 92.3794 178.423 92.3794H169.911V102.594C169.911 103.888 170.762 104.875 171.035 105.42C170.49 105.147 169.502 104.296 168.209 104.296C166.915 104.296 165.927 105.147 165.383 105.42ZM169.911 82.1649V88.9746H178.423C179.445 88.9746 180.126 88.2936 180.126 87.2721V83.8673C180.126 82.8459 179.445 82.1649 178.423 82.1649H169.911Z" fill="black"/>
<path d="M186.896 105.42C187.168 104.875 188.019 103.888 188.019 102.594V80.4625C188.019 79.1686 187.168 78.1812 186.896 77.6365C187.44 77.9089 188.428 78.7601 189.722 78.7601H199.936C201.23 78.7601 202.217 77.9089 202.762 77.6365C202.49 78.1812 201.638 79.1686 201.638 80.4625C201.638 81.7563 202.49 82.7437 202.762 83.2885C202.217 83.0161 201.23 82.1649 199.936 82.1649H191.424V88.9746H198.234C199.527 88.9746 200.515 88.1234 201.06 87.851C200.787 88.3957 199.936 89.3831 199.936 90.677C199.936 91.9708 200.787 92.9582 201.06 93.503C200.515 93.2306 199.527 92.3794 198.234 92.3794H191.424V100.891H199.936C201.23 100.891 202.217 100.04 202.762 99.7679C202.49 100.313 201.638 101.3 201.638 102.594C201.638 103.888 202.49 104.875 202.762 105.42C202.217 105.147 201.23 104.296 199.936 104.296H189.722C188.428 104.296 187.44 105.147 186.896 105.42Z" fill="black"/>
<path d="M107.89 117.139V115.871H110.123V119.427H109.041L108.833 118.842C108.596 119.329 108.141 119.547 107.445 119.547C106.28 119.547 105.676 118.939 105.676 117.422V115.041C105.676 113.346 106.373 112.646 107.904 112.646C109.413 112.646 110.09 113.328 110.09 114.915V115.328H108.41V114.743C108.41 114.163 108.206 113.95 107.9 113.95C107.589 113.95 107.37 114.182 107.37 114.748V117.445C107.37 118.002 107.612 118.243 107.955 118.243C108.28 118.243 108.484 118.025 108.484 117.617V117.139H107.89Z" fill="black"/>
<path d="M110.61 119.427V112.771H112.272V118.109H114.091V119.427H110.61Z" fill="black"/>
<path d="M116.542 119.552C115.001 119.552 114.305 118.851 114.305 117.166V115.031C114.305 113.346 115.001 112.646 116.542 112.646C118.083 112.646 118.784 113.346 118.784 115.031V117.166C118.784 118.851 118.083 119.552 116.542 119.552ZM116.542 118.262C116.862 118.262 117.081 118.039 117.081 117.445V114.748C117.081 114.159 116.862 113.936 116.542 113.936C116.222 113.936 116.004 114.159 116.004 114.748V117.445C116.004 118.039 116.222 118.262 116.542 118.262Z" fill="black"/>
<path d="M119.234 119.427V112.771H121.708C122.827 112.771 123.43 113.379 123.43 114.423V114.651C123.43 115.403 123.119 115.876 122.65 116.038C123.161 116.196 123.514 116.693 123.514 117.491V117.779C123.514 118.8 122.892 119.427 121.676 119.427H119.234ZM121.314 118.239C121.648 118.239 121.861 118.03 121.861 117.668V117.111C121.861 116.749 121.652 116.544 121.314 116.544H120.891V118.239H121.314ZM121.304 115.556C121.62 115.556 121.824 115.356 121.824 115.013V114.511C121.824 114.163 121.62 113.959 121.304 113.959H120.891V115.556H121.304Z" fill="black"/>
<path d="M123.639 119.427L125.045 112.771H127.064L128.475 119.427H126.781L126.619 118.373H125.44L125.282 119.427H123.639ZM125.612 117.227H126.447L126.025 114.479L125.612 117.227Z" fill="black"/>
<path d="M128.703 119.427V112.771H130.365V118.109H132.184V119.427H128.703Z" fill="black"/>
<path d="M135.568 119.427L134.129 112.771H135.837L136.552 117.408L137.253 112.771H138.919L137.485 119.427H135.568Z" fill="black"/>
<path d="M139.146 119.427V112.771H140.808V119.427H139.146Z" fill="black"/>
<path d="M141.3 119.427V112.771H143.774C144.893 112.771 145.496 113.379 145.496 114.423V114.651C145.496 115.403 145.185 115.876 144.716 116.038C145.227 116.196 145.58 116.693 145.58 117.491V117.779C145.58 118.8 144.958 119.427 143.742 119.427H141.3ZM143.379 118.239C143.714 118.239 143.927 118.03 143.927 117.668V117.111C143.927 116.749 143.718 116.544 143.379 116.544H142.957V118.239H143.379ZM143.37 115.556C143.686 115.556 143.89 115.356 143.89 115.013V114.511C143.89 114.163 143.686 113.959 143.37 113.959H142.957V115.556H143.37Z" fill="black"/>
<path d="M146.016 119.427V112.771H149.701V114.08H147.678V115.426H149.256V116.707H147.678V118.118H149.711V119.427H146.016Z" fill="black"/>
<path d="M152.245 119.552C150.713 119.552 150.068 118.902 150.068 117.538V117.129L151.739 117.125V117.677C151.739 118.095 151.929 118.285 152.249 118.285C152.574 118.285 152.769 118.095 152.769 117.677V117.477C152.769 117.083 152.602 116.893 152.24 116.79L151.395 116.549C150.578 116.322 150.096 115.848 150.096 114.743V114.576C150.096 113.3 150.755 112.646 152.226 112.646C153.674 112.646 154.324 113.295 154.324 114.595V114.943H152.69V114.507C152.69 114.098 152.505 113.913 152.226 113.913C151.938 113.913 151.753 114.098 151.753 114.479V114.637C151.753 115.022 151.925 115.208 152.287 115.314L153.113 115.556C153.962 115.797 154.44 116.266 154.44 117.422V117.584C154.44 118.902 153.79 119.552 152.245 119.552Z" fill="black"/>
<path d="M0.635254 103.379V98.1509H1.40451V103.379H0.635254Z" fill="black"/>
<path d="M2.17377 103.379V98.1509H3.07063L5.22527 102.172V98.1509H5.92161V103.379H5.13048L2.86646 99.1608L2.87011 103.379H2.17377Z" fill="black"/>
<path d="M6.69452 103.379V98.1509H9.83716V98.7488H7.46377V100.477H9.51269V101.068H7.46377V103.379H6.69452Z" fill="black"/>
<path d="M10.3549 103.379V98.1509H13.5631V98.7525H11.1241V100.426H13.1621V101.013H11.1241V102.781H13.5887V103.379H10.3549Z" fill="black"/>
<path d="M15.962 103.485C14.6605 103.485 13.9204 102.745 13.9204 101.217V100.313C13.9204 98.7853 14.6605 98.0452 15.9584 98.0452C17.1761 98.0452 17.8177 98.6905 17.836 99.8972V99.9993H17.0558V99.8571C17.0339 99.0551 16.6219 98.6395 15.9511 98.6395C15.2183 98.6395 14.7116 99.1462 14.7116 100.24V101.286C14.7116 102.384 15.2183 102.89 15.9584 102.89C16.6402 102.89 17.0777 102.468 17.0922 101.636V101.472H17.8761V101.593C17.8651 102.828 17.2089 103.485 15.962 103.485Z" fill="black"/>
<path d="M19.5167 103.379V98.7488H18.0693V98.1509H21.7369V98.7488H20.2896V103.379H19.5167Z" fill="black"/>
<path d="M22.2546 103.379V98.1509H25.4629V98.7525H23.0239V100.426H25.0619V101.013H23.0239V102.781H25.4884V103.379H22.2546Z" fill="black"/>
<path d="M26.0681 103.379V98.1509H27.9165C29.1889 98.1509 29.9217 98.8801 29.9217 100.327V101.202C29.9217 102.646 29.1889 103.379 27.9165 103.379H26.0681ZM27.7816 102.781C28.6311 102.781 29.1306 102.285 29.1306 101.243V100.287C29.1306 99.2447 28.6311 98.7488 27.7816 98.7488H26.8374V102.781H27.7816Z" fill="black"/>
<path d="M32.3315 103.379V98.1509H34.4935C35.3393 98.1509 35.8497 98.6613 35.8497 99.4415V99.5691C35.8497 100.134 35.5726 100.535 35.1315 100.688C35.6455 100.82 35.9591 101.243 35.9591 101.888V102.034C35.9591 102.858 35.4377 103.379 34.519 103.379H32.3315ZM34.3403 102.81C34.8726 102.81 35.1898 102.489 35.1898 101.975V101.8C35.1898 101.294 34.8726 100.976 34.3403 100.976L33.1008 100.98V102.81H34.3403ZM34.2966 100.44C34.7815 100.44 35.095 100.131 35.095 99.6639V99.5035C35.095 99.0332 34.7815 98.7197 34.2966 98.7197H33.1008V100.437L34.2966 100.44Z" fill="black"/>
<path d="M37.6945 103.379V101.366L36.1158 98.1509H36.9507L38.0918 100.594L39.2293 98.1509H40.0423L38.4637 101.366V103.379H37.6945Z" fill="black"/>
<path d="M41.847 103.379L43.4766 98.1509H44.3626L45.9922 103.379H45.1901L44.8292 102.136H42.9808L42.6235 103.379H41.847ZM43.1449 101.567H44.6652L43.9032 98.9311L43.1449 101.567Z" fill="black"/>
<path d="M46.4406 103.379V98.1509H48.5844C49.5031 98.1509 50.0499 98.6978 50.0499 99.5691V99.766C50.0499 100.455 49.7072 100.903 49.1385 101.031C49.4484 101.119 49.638 101.374 49.7364 101.833L49.8895 102.595C49.977 103.018 50.0901 103.24 50.2177 103.35V103.379H49.3354C49.2588 103.222 49.1896 103.018 49.1203 102.639L49.0036 101.957C48.9161 101.494 48.6974 101.297 48.2745 101.297H47.2099V103.379H46.4406ZM48.4166 100.736C48.9562 100.736 49.277 100.411 49.277 99.8535V99.6202C49.277 99.066 48.9562 98.7452 48.4166 98.7452H47.2099V100.736H48.4166Z" fill="black"/>
<path d="M51.7598 103.379V98.7488H50.3125V98.1509H53.9801V98.7488H52.5327V103.379H51.7598Z" fill="black"/>
<path d="M206.039 103.379L208.007 98.1509H208.952L210.92 103.379H210.02L209.568 102.099H207.358L206.91 103.379H206.039ZM207.573 101.49H209.349L208.459 98.9712L207.573 101.49Z" fill="black"/>
<path d="M211.387 103.379V98.1509H214.077C215.051 98.1509 215.649 98.7488 215.649 99.642V99.715C215.649 100.404 215.292 100.878 214.646 101.024C214.971 101.119 215.164 101.377 215.284 101.862L215.434 102.489C215.547 102.941 215.674 103.219 215.838 103.342V103.379H214.825C214.726 103.175 214.664 102.931 214.581 102.537L214.482 102.056C214.373 101.531 214.121 101.308 213.644 101.308H212.24V103.379H211.387ZM213.862 100.692C214.442 100.692 214.796 100.338 214.796 99.7733V99.7004C214.796 99.1426 214.442 98.7889 213.862 98.7889H212.24V100.692H213.862Z" fill="black"/>
<path d="M217.618 103.379V98.7962H215.875V98.1509H220.21V98.7962H218.467V103.379H217.618Z" fill="black"/>
<path d="M220.771 103.379V98.1509H221.624V103.379H220.771Z" fill="black"/>
<path d="M224.541 103.503C222.951 103.503 222.321 102.843 222.302 101.716H223.159C223.185 102.457 223.608 102.883 224.588 102.883C225.511 102.883 225.886 102.504 225.886 101.968V101.917C225.886 101.498 225.653 101.261 225.164 101.195L223.611 100.976C222.816 100.867 222.375 100.422 222.375 99.6749V99.6056C222.375 98.6832 223.028 98.027 224.486 98.027C225.926 98.027 226.531 98.6613 226.546 99.653H225.697C225.66 99.0077 225.314 98.6468 224.453 98.6468C223.597 98.6468 223.236 99.0113 223.236 99.54V99.591C223.236 100.014 223.476 100.247 223.947 100.313L225.518 100.535C226.313 100.648 226.747 101.086 226.747 101.84V101.917C226.747 102.847 226.098 103.503 224.541 103.503Z" fill="black"/>
<path d="M228.591 103.379V98.7962H226.849V98.1509H231.183V98.7962H229.441V103.379H228.591Z" fill="black"/>
<path d="M231.745 103.379V98.1509H232.598V103.379H231.745Z" fill="black"/>
<path d="M235.762 103.503C234.209 103.503 233.302 102.595 233.302 100.871V100.659C233.302 98.9348 234.209 98.027 235.766 98.027C237.221 98.027 237.968 98.7962 238.008 100.003V100.007H237.141V99.9993C237.097 99.179 236.605 98.6723 235.755 98.6723C234.826 98.6723 234.188 99.3103 234.188 100.619V100.911C234.188 102.22 234.826 102.858 235.759 102.858C236.612 102.858 237.152 102.34 237.184 101.49V101.483H238.052V101.487C238.03 102.723 237.257 103.503 235.762 103.503Z" fill="black"/>
<path d="M238.253 103.379L240.221 98.1509H241.166L243.134 103.379H242.234L241.782 102.099H239.572L239.124 103.379H238.253ZM239.787 101.49H241.563L240.673 98.9712L239.787 101.49Z" fill="black"/>
<path d="M243.601 103.379V98.1509H244.454V102.734H247.279V103.379H243.601Z" fill="black"/>
<path d="M247.837 103.379V98.1509H248.69V102.734H251.516V103.379H247.837Z" fill="black"/>
<path d="M252.46 103.379V101.359L250.583 98.1509H251.53L252.901 100.601L254.268 98.1509H255.191L253.31 101.366V103.379H252.46Z" fill="black"/>
<path d="M257.571 103.379V98.1509H258.425V103.379H257.571Z" fill="black"/>
<path d="M259.263 103.379V98.1509H260.273L262.891 102.143V98.1509H263.682V103.379H262.84L260.054 99.1316V103.379H259.263Z" fill="black"/>
<path d="M264.52 103.379V98.1509H268.268V98.7926H265.373V100.44H267.9V101.075H265.373V103.379H264.52Z" fill="black"/>
<path d="M268.83 103.379V98.1509H272.658V98.7999H269.683V100.404H272.209V101.027H269.683V102.737H272.69V103.379H268.83Z" fill="black"/>
<path d="M275.436 103.503C273.883 103.503 272.975 102.595 272.975 100.871V100.659C272.975 98.9348 273.883 98.027 275.439 98.027C276.894 98.027 277.641 98.7962 277.682 100.003V100.007H276.814V99.9993C276.77 99.179 276.278 98.6723 275.428 98.6723C274.499 98.6723 273.861 99.3103 273.861 100.619V100.911C273.861 102.22 274.499 102.858 275.432 102.858C276.285 102.858 276.825 102.34 276.858 101.49V101.483H277.725V101.487C277.703 102.723 276.93 103.503 275.436 103.503Z" fill="black"/>
<path d="M279.603 103.379V98.7962H277.86V98.1509H282.195V98.7962H280.452V103.379H279.603Z" fill="black"/>
<path d="M282.756 103.379V98.1509H286.584V98.7999H283.609V100.404H286.136V101.027H283.609V102.737H286.617V103.379H282.756Z" fill="black"/>
<path d="M287.27 103.379V98.1509H289.541C290.97 98.1509 291.864 99.0441 291.864 100.663V100.867C291.864 102.482 290.97 103.379 289.541 103.379H287.27ZM289.355 102.737C290.372 102.737 290.985 102.125 290.985 100.9V100.63C290.985 99.4051 290.372 98.7926 289.355 98.7926H288.123V102.737H289.355Z" fill="black"/>
<path d="M292.447 102.406H293.406V103.379H292.447V102.406Z" fill="black"/>
<path d="M11.063 68.374V19.5593H0.507202V2.27365H43.6983V19.5593H33.1425V68.374H11.063Z" fill="black"/>
<path d="M69.3272 68.374V43.0678H67.4834V68.374H45.4038V2.27365H67.4834V26.0126H69.3272V2.27365H91.4067V68.374H69.3272Z" fill="black"/>
<path d="M93.2506 68.374V2.27365H132.708V19.3288H115.33V26.8423H128.375V43.4366H115.33V51.3188H132.708V68.374H93.2506Z" fill="black"/>
<path d="M151.607 68.374V2.27365H179.494C190.972 2.27365 196.965 8.31211 196.965 18.5913V21.4492C196.965 28.9166 194.014 33.4339 189.451 34.9551C194.291 36.4762 197.61 41.3162 197.61 49.2446V52.6095C197.61 62.2434 191.479 68.374 178.987 68.374H151.607ZM174.009 53.6236C175.023 53.6236 175.669 53.0244 175.669 51.3649V42.4225C175.669 40.717 175.023 40.0716 174.009 40.0716H173.64V53.6236H174.009ZM174.009 29.9768C175.023 29.9768 175.669 29.3776 175.669 27.7181V19.3749C175.669 17.6694 175.023 17.0241 174.009 17.0241H173.64V29.9768H174.009Z" fill="black"/>
<path d="M221.672 69.7108C205.077 69.7108 198.993 63.6262 198.993 51.6415V2.27365H221.072V51.0423C221.072 52.379 221.395 52.7017 221.994 52.7017C222.593 52.7017 222.916 52.379 222.916 51.0423V2.27365H244.35V51.6415C244.35 63.6262 238.266 69.7108 221.672 69.7108Z" fill="black"/>
<path d="M270.117 47.3086V31.1753H293.534V68.374H279.198L276.986 63.027C274.589 67.6365 270.164 69.6186 263.434 69.6186C251.679 69.6186 246.102 64.0872 246.102 49.5672V24.4915C246.102 7.85115 253.016 0.93689 269.749 0.93689C286.343 0.93689 293.211 7.85115 293.211 23.1086V29.5619H270.763V20.2507C270.763 18.5452 270.625 17.9921 269.749 17.9921C268.873 17.9921 268.735 18.5452 268.735 20.2507V50.1204C268.735 51.872 269.288 52.6095 270.394 52.6095C271.5 52.6095 272.007 51.9181 272.007 50.1204V47.3086H270.117Z" fill="black"/>
</svg>
